<svg width="800" height="800" viewBox="0 0 800 800" fill="none" xmlns="http://www.w3.org/2000/svg">
<path d="M300 700.007V453.34C300 434.673 300 425.337 303.633 418.207C306.829 411.937 311.928 406.837 318.2 403.64C325.331 400.007 334.663 400.007 353.333 400.007H446.667C465.337 400.007 474.67 400.007 481.8 403.64C488.073 406.837 493.17 411.937 496.367 418.207C500 425.337 500 434.673 500 453.34V700.007M367.257 92.1413L141.18 267.979C126.067 279.733 118.511 285.61 113.068 292.97C108.246 299.49 104.653 306.834 102.468 314.643C100 323.459 100 333.031 100 352.177V593.34C100 630.677 100 649.347 107.266 663.607C113.658 676.15 123.856 686.35 136.401 692.74C150.661 700.007 169.33 700.007 206.667 700.007H593.333C630.67 700.007 649.34 700.007 663.6 692.74C676.143 686.35 686.343 676.15 692.733 663.607C700 649.347 700 630.677 700 593.34V352.177C700 333.031 700 323.459 697.533 314.643C695.347 306.834 691.753 299.49 686.933 292.97C681.49 285.61 673.933 279.733 658.82 267.979L432.743 92.1413C421.033 83.033 415.177 78.4786 408.71 76.728C403.007 75.1833 396.993 75.1833 391.29 76.728C384.823 78.4786 378.967 83.033 367.257 92.1413Z" stroke="black" stroke-width="66.6667" stroke-linecap="round" stroke-linejoin="round"/>
</svg>
