<svg width="316" height="316" viewBox="0 0 316 316" fill="none" xmlns="http://www.w3.org/2000/svg">
<g clip-path="url(#clip0_83_526)">
<path d="M51.937 53.3542V98.9448C63.5118 87.37 77.7441 78.5117 93.6299 73.3739C83.8858 61.1495 68.7677 53.3542 51.937 53.3542Z" fill="#FE91A1"/>
<path d="M74.7913 265.598V280.244C74.7913 295.539 87.1928 308 102.606 308C117.961 308 130.421 295.539 130.421 280.244V279.122H126.701C107.803 279.122 90.1456 274.22 74.7913 265.598Z" fill="#FE91A1"/>
<path d="M202.232 279.122H198.453V280.244C198.453 295.539 210.914 308 226.268 308C241.622 308 254.083 295.539 254.083 280.244V265.539C238.728 274.161 221.071 279.122 202.232 279.122Z" fill="#FE91A1"/>
<path d="M225.5 70.6575C225.146 86.6024 218.413 101.071 207.961 111.701H120.913C110.402 101.071 103.728 86.6024 103.374 70.6575C83.5906 75.0866 65.815 85.0669 51.878 98.9449C41.0118 109.811 32.4488 123.157 27.0748 137.921C16.4449 138.453 8 147.193 8 157.882V189.299C8 200.047 16.4449 208.787 27.0748 209.26C41.7795 250.008 80.815 279.122 126.701 279.122H202.173C231.406 279.122 257.862 267.311 276.996 248.236C296.189 229.102 308 202.764 308 173.531C308 123.276 272.744 81.2283 225.5 70.6575Z" fill="#FCB5C4"/>
<path d="M231.169 111.76H97.7046C97.4684 111.76 97.2322 111.524 97.2322 111.287V102.37C97.2322 102.134 97.4684 101.898 97.7046 101.898H231.169C231.405 101.898 231.642 102.134 231.642 102.37V111.287C231.642 111.524 231.405 111.76 231.169 111.76Z" fill="#662113"/>
<path d="M54.7126 148.374C59.8006 148.374 63.9252 144.249 63.9252 139.161C63.9252 134.073 59.8006 129.949 54.7126 129.949C49.6246 129.949 45.5 134.073 45.5 139.161C45.5 144.249 49.6246 148.374 54.7126 148.374Z" fill="#662113"/>
<g clip-path="url(#clip1_83_526)">
<circle cx="164.5" cy="70.5" r="62.5" fill="#FFE14D"/>
<circle cx="164" cy="70" r="55" fill="#FF9F19"/>
<circle cx="164" cy="70" r="49" fill="#FFE14D"/>
<g clip-path="url(#clip2_83_526)">
<path d="M154.261 40.8123L134 52.5092V61.5831L154.261 49.8854L174.521 61.5831V52.5092L154.261 40.8123ZM174.17 99.2642L153.909 87.5673V78.4949L174.17 90.1919L194.431 78.4949V87.5673L174.17 99.2642Z" fill="#FF9F19"/>
<path d="M134 64.0197L154.261 52.322L162.118 56.8586L141.857 68.5563V91.9518L134 87.4152V64.0197ZM184.49 46.697L164.229 35L156.371 39.5366L176.632 51.2335V74.629L184.49 70.0924V46.697Z" fill="#FF9F19"/>
<path d="M144.01 93.3015L144.011 69.9067L151.868 65.3702V88.7656L172.129 100.463L164.271 105L144.01 93.3015ZM194.43 76.0573V52.6618L186.573 48.1252V71.52L166.313 83.2185L174.17 87.7558L194.43 76.0573Z" fill="#FF9F19"/>
</g>
</g>
</g>
<defs>
<clipPath id="clip0_83_526">
<rect width="300" height="300" fill="white" transform="translate(8 8)"/>
</clipPath>
<clipPath id="clip1_83_526">
<rect width="125" height="103.8" fill="white" transform="translate(102 8)"/>
</clipPath>
<clipPath id="clip2_83_526">
<rect width="60.4305" height="70" fill="white" transform="translate(134 35)"/>
</clipPath>
</defs>
</svg>
