<svg width="96" height="96" viewBox="0 0 96 96" fill="none" xmlns="http://www.w3.org/2000/svg">
<rect width="96" height="96" fill="#077CC0"/>
<mask id="mask0_2155_598" style="mask-type:luminance" maskUnits="userSpaceOnUse" x="12" y="12" width="72" height="72">
<path d="M84 12H12V84H84V12Z" fill="white"/>
</mask>
<g mask="url(#mask0_2155_598)">
<path d="M22.5449 22.885V33.8268C25.3229 31.0488 28.7386 28.9229 32.5512 27.6898C30.2127 24.756 26.5844 22.885 22.5449 22.885Z" fill="#EAEAEA"/>
<path d="M28.0298 73.8235V77.3386C28.0298 81.0094 31.0063 84 34.7054 84C38.3906 84 41.381 81.0094 41.381 77.3386V77.0693H40.4882C35.9527 77.0693 31.715 75.8928 28.0298 73.8235Z" fill="#EAEAEA"/>
<path d="M58.6157 77.0693H57.7087V77.3386C57.7087 81.0094 60.6991 84 64.3843 84C68.0693 84 71.0599 81.0094 71.0599 77.3386V73.8094C67.3747 75.8786 63.1371 77.0693 58.6157 77.0693Z" fill="#EAEAEA"/>
<path d="M64.2 27.0377C64.115 30.8645 62.4991 34.3371 59.9906 36.8883H39.0991C36.5765 34.3371 34.9747 30.8645 34.8898 27.0377C30.1418 28.1009 25.8756 30.4961 22.5307 33.8268C19.9228 36.4347 17.8677 39.6377 16.578 43.1811C14.0268 43.3087 12 45.4063 12 47.9717V55.5118C12 58.0913 14.0268 60.1889 16.578 60.3024C20.1071 70.0819 29.4756 77.0693 40.4882 77.0693H58.6015C65.6174 77.0693 71.9669 74.2347 76.559 69.6566C81.1654 65.0645 84 58.7434 84 51.7275C84 39.6663 75.5386 29.5747 64.2 27.0377Z" fill="#FEFEFE"/>
<path d="M65.5607 36.9024H33.5293C33.4727 36.9024 33.4158 36.8458 33.4158 36.7889V34.6488C33.4158 34.5922 33.4727 34.5355 33.5293 34.5355H65.5607C65.6175 34.5355 65.6742 34.5922 65.6742 34.6488V36.7889C65.6742 36.8458 65.6175 36.9024 65.5607 36.9024Z" fill="#40596B"/>
<path d="M23.211 45.6898C24.4322 45.6898 25.422 44.6998 25.422 43.4786C25.422 42.2575 24.4322 41.2678 23.211 41.2678C21.9899 41.2678 21 42.2575 21 43.4786C21 44.6998 21.9899 45.6898 23.211 45.6898Z" fill="#40596B"/>
<mask id="mask1_2155_598" style="mask-type:luminance" maskUnits="userSpaceOnUse" x="34" y="12" width="31" height="25">
<path d="M64.5601 12H34.5601V36.912H64.5601V12Z" fill="white"/>
</mask>
<g mask="url(#mask1_2155_598)">
<path d="M49.5601 42C57.8443 42 64.5601 35.2843 64.5601 27C64.5601 18.7157 57.8443 12 49.5601 12C41.2758 12 34.5601 18.7157 34.5601 27C34.5601 35.2843 41.2758 42 49.5601 42Z" fill="#FFE14D"/>
<path d="M49.44 40.08C56.7301 40.08 62.64 34.1702 62.64 26.88C62.64 19.5898 56.7301 13.68 49.44 13.68C42.1498 13.68 36.24 19.5898 36.24 26.88C36.24 34.1702 42.1498 40.08 49.44 40.08Z" fill="#FF9F19"/>
<path d="M49.4402 38.64C55.935 38.64 61.2002 33.3749 61.2002 26.88C61.2002 20.3851 55.935 15.12 49.4402 15.12C42.9453 15.12 37.6802 20.3851 37.6802 26.88C37.6802 33.3749 42.9453 38.64 49.4402 38.64Z" fill="#FFE14D"/>
<mask id="mask2_2155_598" style="mask-type:luminance" maskUnits="userSpaceOnUse" x="42" y="18" width="15" height="18">
<path d="M56.7433 18.48H42.24V35.28H56.7433V18.48Z" fill="white"/>
</mask>
<g mask="url(#mask2_2155_598)">
<path d="M47.1026 19.8749L42.24 22.6822V24.8599L47.1026 22.0525L51.965 24.8599V22.6822L47.1026 19.8749ZM51.8808 33.9034L47.0181 31.0961V28.9188L51.8808 31.7261L56.7434 28.9188V31.0961L51.8808 33.9034Z" fill="#FF9F19"/>
<path d="M42.24 25.4448L47.1026 22.6373L48.9883 23.7261L44.1257 26.5334V32.1485L42.24 31.0596V25.4448ZM54.3576 21.2873L49.495 18.48L47.609 19.5688L52.4717 22.376V27.991L54.3576 26.9021V21.2873Z" fill="#FF9F19"/>
<path d="M44.6423 32.4725L44.6426 26.8577L46.5285 25.7688V31.3838L51.3909 34.1911L49.505 35.28L44.6423 32.4725ZM56.7434 28.3337V22.7189L54.8575 21.6301V27.2448L49.9951 30.0526L51.8807 31.1414L56.7434 28.3337Z" fill="#FF9F19"/>
</g>
</g>
</g>
</svg>
