<svg width="300" height="300" viewBox="0 0 300 300" fill="none" xmlns="http://www.w3.org/2000/svg">
<g clip-path="url(#clip0_78_427)">
<path d="M43.937 45.3544V90.9449C55.5118 79.3701 69.7441 70.5118 85.6299 65.3741C75.8858 53.1496 60.7677 45.3544 43.937 45.3544Z" fill="#FE91A1"/>
<path d="M66.7913 257.599V272.244C66.7913 287.539 79.1928 300 94.6062 300C109.961 300 122.421 287.539 122.421 272.244V271.122H118.701C99.8031 271.122 82.1456 266.221 66.7913 257.599Z" fill="#FE91A1"/>
<path d="M194.232 271.122H190.453V272.244C190.453 287.539 202.914 300 218.268 300C233.622 300 246.083 287.539 246.083 272.244V257.539C230.728 266.161 213.071 271.122 194.232 271.122Z" fill="#FE91A1"/>
<path d="M217.5 62.6575C217.146 78.6024 210.413 93.0709 199.961 103.701H112.913C102.402 93.0709 95.7283 78.6024 95.374 62.6575C75.5906 67.0866 57.815 77.0669 43.878 90.9449C33.0118 101.811 24.4488 115.157 19.0748 129.921C8.44488 130.453 0 139.193 0 149.882V181.299C0 192.047 8.44488 200.787 19.0748 201.26C33.7795 242.008 72.815 271.122 118.701 271.122H194.173C223.406 271.122 249.862 259.311 268.996 240.236C288.189 221.102 300 194.764 300 165.531C300 115.276 264.744 73.2283 217.5 62.6575Z" fill="#FCB5C4"/>
<path d="M223.169 103.76H89.7046C89.4684 103.76 89.2322 103.524 89.2322 103.287V94.3701C89.2322 94.1339 89.4684 93.8977 89.7046 93.8977H223.169C223.405 93.8977 223.642 94.1339 223.642 94.3701V103.287C223.642 103.524 223.405 103.76 223.169 103.76Z" fill="#662113"/>
<path d="M46.7126 140.374C51.8006 140.374 55.9252 136.249 55.9252 131.161C55.9252 126.073 51.8006 121.949 46.7126 121.949C41.6246 121.949 37.5 126.073 37.5 131.161C37.5 136.249 41.6246 140.374 46.7126 140.374Z" fill="#662113"/>
<g clip-path="url(#clip1_78_427)">
<circle cx="156.5" cy="62.5" r="62.5" fill="#FFE14D"/>
<circle cx="156" cy="62" r="55" fill="#FF9F19"/>
<circle cx="156" cy="62" r="49" fill="#FFE14D"/>
<g clip-path="url(#clip2_78_427)">
<path d="M146.261 32.8121L126 44.5091V53.583L146.261 41.8853L166.521 53.583V44.5091L146.261 32.8121ZM166.17 91.2641L145.909 79.5671V70.4948L166.17 82.1917L186.431 70.4948V79.5671L166.17 91.2641Z" fill="#FF9F19"/>
<path d="M126 56.0197L146.261 44.322L154.118 48.8586L133.857 60.5563V83.9518L126 79.4152V56.0197ZM176.49 38.697L156.229 27L148.371 31.5366L168.632 43.2335V66.629L176.49 62.0924V38.697Z" fill="#FF9F19"/>
<path d="M136.01 85.3016L136.011 61.9068L143.868 57.3703V80.7658L164.129 92.4628L156.271 97.0001L136.01 85.3016ZM186.43 68.0574V44.6619L178.573 40.1254V63.5201L158.313 75.2186L166.17 79.7559L186.43 68.0574Z" fill="#FF9F19"/>
</g>
</g>
</g>
<defs>
<clipPath id="clip0_78_427">
<rect width="300" height="300" fill="white"/>
</clipPath>
<clipPath id="clip1_78_427">
<rect width="125" height="103.8" fill="white" transform="translate(94)"/>
</clipPath>
<clipPath id="clip2_78_427">
<rect width="60.4305" height="70" fill="white" transform="translate(126 27)"/>
</clipPath>
</defs>
</svg>
