<svg width="367" height="96" viewBox="0 0 367 96" fill="none" xmlns="http://www.w3.org/2000/svg">
<rect width="367" height="96" rx="16" fill="#077CC0"/>
<mask id="mask0_2155_651" style="mask-type:luminance" maskUnits="userSpaceOnUse" x="16" y="12" width="72" height="72">
<path d="M88 12H16V84H88V12Z" fill="white"/>
</mask>
<g mask="url(#mask0_2155_651)">
<path d="M26.5449 22.885V33.8268C29.3229 31.0488 32.7386 28.9229 36.5512 27.6898C34.2127 24.756 30.5844 22.885 26.5449 22.885Z" fill="#EAEAEA"/>
<path d="M32.0298 73.8235V77.3386C32.0298 81.0094 35.0063 84 38.7054 84C42.3906 84 45.381 81.0094 45.381 77.3386V77.0693H44.4882C39.9527 77.0693 35.715 75.8928 32.0298 73.8235Z" fill="#EAEAEA"/>
<path d="M62.6157 77.0693H61.7087V77.3386C61.7087 81.0094 64.6991 84 68.3843 84C72.0693 84 75.0599 81.0094 75.0599 77.3386V73.8094C71.3747 75.8786 67.1371 77.0693 62.6157 77.0693Z" fill="#EAEAEA"/>
<path d="M68.2 27.0377C68.115 30.8645 66.4991 34.337 63.9906 36.8882H43.0991C40.5765 34.337 38.9747 30.8645 38.8898 27.0377C34.1418 28.1009 29.8756 30.4961 26.5307 33.8268C23.9228 36.4346 21.8677 39.6377 20.578 43.181C18.0268 43.3087 16 45.4063 16 47.9717V55.5118C16 58.0913 18.0268 60.1889 20.578 60.3024C24.1071 70.0819 33.4756 77.0693 44.4882 77.0693H62.6015C69.6174 77.0693 75.9669 74.2346 80.559 69.6566C85.1654 65.0645 88 58.7434 88 51.7274C88 39.6662 79.5386 29.5747 68.2 27.0377Z" fill="#FEFEFE"/>
<path d="M69.5607 36.9024H37.5293C37.4727 36.9024 37.4158 36.8458 37.4158 36.7889V34.6488C37.4158 34.5922 37.4727 34.5355 37.5293 34.5355H69.5607C69.6175 34.5355 69.6742 34.5922 69.6742 34.6488V36.7889C69.6742 36.8458 69.6175 36.9024 69.5607 36.9024Z" fill="#40596B"/>
<path d="M27.211 45.6898C28.4322 45.6898 29.422 44.6998 29.422 43.4786C29.422 42.2575 28.4322 41.2678 27.211 41.2678C25.9899 41.2678 25 42.2575 25 43.4786C25 44.6998 25.9899 45.6898 27.211 45.6898Z" fill="#40596B"/>
<mask id="mask1_2155_651" style="mask-type:luminance" maskUnits="userSpaceOnUse" x="38" y="12" width="31" height="25">
<path d="M68.5601 12H38.5601V36.912H68.5601V12Z" fill="white"/>
</mask>
<g mask="url(#mask1_2155_651)">
<path d="M53.5601 42C61.8443 42 68.5601 35.2843 68.5601 27C68.5601 18.7157 61.8443 12 53.5601 12C45.2758 12 38.5601 18.7157 38.5601 27C38.5601 35.2843 45.2758 42 53.5601 42Z" fill="#FFE14D"/>
<path d="M53.44 40.08C60.7301 40.08 66.64 34.1702 66.64 26.88C66.64 19.5898 60.7301 13.68 53.44 13.68C46.1498 13.68 40.24 19.5898 40.24 26.88C40.24 34.1702 46.1498 40.08 53.44 40.08Z" fill="#FF9F19"/>
<path d="M53.4402 38.64C59.935 38.64 65.2002 33.3749 65.2002 26.88C65.2002 20.3851 59.935 15.12 53.4402 15.12C46.9453 15.12 41.6802 20.3851 41.6802 26.88C41.6802 33.3749 46.9453 38.64 53.4402 38.64Z" fill="#FFE14D"/>
<mask id="mask2_2155_651" style="mask-type:luminance" maskUnits="userSpaceOnUse" x="46" y="18" width="15" height="18">
<path d="M60.7433 18.48H46.24V35.28H60.7433V18.48Z" fill="white"/>
</mask>
<g mask="url(#mask2_2155_651)">
<path d="M51.1026 19.8749L46.24 22.6822V24.8599L51.1026 22.0525L55.965 24.8599V22.6822L51.1026 19.8749ZM55.8808 33.9034L51.0181 31.0961V28.9188L55.8808 31.7261L60.7434 28.9188V31.0961L55.8808 33.9034Z" fill="#FF9F19"/>
<path d="M46.24 25.4448L51.1026 22.6373L52.9883 23.7261L48.1257 26.5334V32.1485L46.24 31.0596V25.4448ZM58.3576 21.2873L53.495 18.48L51.609 19.5688L56.4717 22.376V27.991L58.3576 26.9021V21.2873Z" fill="#FF9F19"/>
<path d="M48.6423 32.4725L48.6426 26.8577L50.5285 25.7688V31.3838L55.3909 34.1911L53.505 35.28L48.6423 32.4725ZM60.7434 28.3337V22.7189L58.8575 21.6301V27.2448L53.9951 30.0526L55.8807 31.1414L60.7434 28.3337Z" fill="#FF9F19"/>
</g>
</g>
</g>
<path d="M126.452 42.248V49.592H111.288V42.248H126.452ZM121.352 49.592L122.168 43.948C125.931 43.948 129.059 44.4013 131.552 45.308C134.045 46.2147 135.904 47.484 137.128 49.116C138.397 50.748 139.032 52.72 139.032 55.032C139.032 59.4293 137.4 62.6933 134.136 64.824C130.872 66.9547 126.225 68.02 120.196 68.02C119.108 68.02 117.861 67.9747 116.456 67.884C115.096 67.7933 113.691 67.6347 112.24 67.408C110.835 67.1813 109.543 66.864 108.364 66.456C106.007 65.5947 104.828 64.076 104.828 61.9V29.396C104.828 28.5347 105.077 27.8547 105.576 27.356C106.075 26.8573 106.732 26.472 107.548 26.2C109.089 25.656 110.948 25.2707 113.124 25.044C115.345 24.8173 117.612 24.704 119.924 24.704C125.545 24.704 129.875 25.6787 132.912 27.628C135.995 29.5773 137.536 32.524 137.536 36.468C137.536 38.644 136.901 40.5027 135.632 42.044C134.363 43.5853 132.504 44.764 130.056 45.58C127.653 46.396 124.729 46.804 121.284 46.804L120.808 42.248C122.984 42.248 124.593 41.8173 125.636 40.956C126.679 40.0947 127.2 38.8707 127.2 37.284C127.2 35.788 126.588 34.632 125.364 33.816C124.185 33 122.395 32.592 119.992 32.592C119.131 32.592 118.224 32.6373 117.272 32.728C116.32 32.7733 115.527 32.864 114.892 33V59.452C115.663 59.6333 116.592 59.7693 117.68 59.86C118.813 59.9507 119.879 59.996 120.876 59.996C123.143 59.996 124.956 59.5653 126.316 58.704C127.721 57.7973 128.424 56.4373 128.424 54.624C128.424 52.9013 127.835 51.632 126.656 50.816C125.477 50 123.709 49.592 121.352 49.592ZM164.21 68.156C160.492 68.156 157.296 67.4987 154.622 66.184C151.992 64.824 149.952 62.9427 148.502 60.54C147.096 58.1373 146.394 55.3267 146.394 52.108V47.62H156.798V51.836C156.798 54.3293 157.478 56.2787 158.838 57.684C160.243 59.044 162.034 59.724 164.21 59.724C166.386 59.724 168.154 59.044 169.514 57.684C170.919 56.2787 171.622 54.3293 171.622 51.836V47.62H182.026V52.108C182.026 55.3267 181.323 58.1373 179.918 60.54C178.512 62.9427 176.472 64.824 173.798 66.184C171.123 67.4987 167.927 68.156 164.21 68.156ZM156.798 49.66H146.394V25.656C146.892 25.5653 147.595 25.452 148.502 25.316C149.408 25.18 150.315 25.112 151.222 25.112C153.171 25.112 154.576 25.452 155.438 26.132C156.344 26.812 156.798 28.104 156.798 30.008V49.66ZM182.026 49.796H171.622V25.656C172.12 25.5653 172.823 25.452 173.73 25.316C174.682 25.18 175.588 25.112 176.45 25.112C178.399 25.112 179.804 25.452 180.666 26.132C181.572 26.812 182.026 28.104 182.026 30.008V49.796ZM218.348 46.396C218.348 43.3587 217.827 40.8653 216.784 38.916C215.787 36.9667 214.381 35.516 212.568 34.564C210.8 33.5667 208.737 33.068 206.38 33.068C205.564 33.068 204.771 33.1133 204 33.204C203.275 33.2493 202.527 33.3173 201.756 33.408V59.18C202.436 59.316 203.207 59.4293 204.068 59.52C204.929 59.5653 205.745 59.588 206.516 59.588C210.097 59.588 212.953 58.4773 215.084 56.256C217.26 54.0347 218.348 50.748 218.348 46.396ZM229.024 46.192C229.024 51.088 228.072 55.1453 226.168 58.364C224.309 61.5827 221.68 64.008 218.28 65.64C214.925 67.2267 210.981 68.02 206.448 68.02C204.952 68.02 203.116 67.9067 200.94 67.68C198.764 67.4987 196.792 67.0907 195.024 66.456C192.667 65.5947 191.488 64.076 191.488 61.9V29.396C191.488 28.4893 191.737 27.8093 192.236 27.356C192.735 26.8573 193.392 26.4493 194.208 26.132C196.021 25.5427 197.971 25.1573 200.056 24.976C202.141 24.7947 204.045 24.704 205.768 24.704C210.437 24.704 214.495 25.4973 217.94 27.084C221.431 28.6253 224.151 30.9827 226.1 34.156C228.049 37.3293 229.024 41.3413 229.024 46.192ZM272.754 46.668V60.812C272.754 62.0813 272.505 63.056 272.006 63.736C271.553 64.3707 270.782 64.9827 269.694 65.572C268.47 66.252 266.702 66.8413 264.39 67.34C262.078 67.884 259.766 68.156 257.454 68.156C253.102 68.156 249.181 67.408 245.69 65.912C242.245 64.3707 239.502 62.0133 237.462 58.84C235.467 55.6213 234.47 51.496 234.47 46.464C234.47 41.6587 235.49 37.6467 237.53 34.428C239.57 31.164 242.313 28.716 245.758 27.084C249.249 25.4067 253.102 24.568 257.318 24.568C260.129 24.568 262.554 24.8627 264.594 25.452C266.679 26.0413 268.266 26.8573 269.354 27.9C270.487 28.9427 271.054 30.144 271.054 31.504C271.054 32.5013 270.782 33.408 270.238 34.224C269.739 34.9947 269.127 35.584 268.402 35.992C267.269 35.2667 265.841 34.5867 264.118 33.952C262.395 33.3173 260.378 33 258.066 33C255.573 33 253.329 33.544 251.334 34.632C249.385 35.6747 247.866 37.216 246.778 39.256C245.69 41.2507 245.146 43.6307 245.146 46.396C245.146 49.388 245.667 51.8813 246.71 53.876C247.798 55.8707 249.271 57.3667 251.13 58.364C253.034 59.316 255.187 59.792 257.59 59.792C258.723 59.792 259.743 59.6787 260.65 59.452C261.602 59.2253 262.327 58.9987 262.826 58.772V50.816H254.87C254.598 50.3627 254.349 49.796 254.122 49.116C253.895 48.3907 253.782 47.62 253.782 46.804C253.782 45.3987 254.099 44.3787 254.734 43.744C255.414 43.064 256.298 42.724 257.386 42.724H268.81C270.034 42.724 270.986 43.064 271.666 43.744C272.391 44.424 272.754 45.3987 272.754 46.668ZM281.336 38.168H291.4V66.592C290.992 66.6827 290.357 66.796 289.496 66.932C288.68 67.068 287.796 67.136 286.844 67.136C285.166 67.136 283.829 66.6373 282.832 65.64C281.834 64.6427 281.336 63.3053 281.336 61.628V38.168ZM291.4 54.624H281.336V31.3C281.336 29.5773 281.834 28.24 282.832 27.288C283.829 26.2907 285.166 25.792 286.844 25.792C287.796 25.792 288.68 25.86 289.496 25.996C290.357 26.132 290.992 26.2453 291.4 26.336V54.624ZM286.844 50.068V41.908H307.38C307.652 42.3613 307.901 42.928 308.128 43.608C308.354 44.288 308.468 45.036 308.468 45.852C308.468 47.3027 308.128 48.368 307.448 49.048C306.813 49.728 305.952 50.068 304.864 50.068H286.844ZM286.844 67.136V58.908H309.624C309.896 59.316 310.145 59.8827 310.372 60.608C310.598 61.3333 310.712 62.104 310.712 62.92C310.712 64.3707 310.372 65.436 309.692 66.116C309.057 66.796 308.196 67.136 307.108 67.136H286.844ZM286.844 33.952V25.792H309.284C309.601 26.2 309.85 26.744 310.032 27.424C310.258 28.104 310.372 28.852 310.372 29.668C310.372 31.1187 310.054 32.2067 309.42 32.932C308.785 33.612 307.901 33.952 306.768 33.952H286.844ZM327.3 34.088L327.232 25.792H348.244C348.516 26.2 348.765 26.7667 348.992 27.492C349.219 28.2173 349.332 28.988 349.332 29.804C349.332 31.2547 348.992 32.3427 348.312 33.068C347.677 33.748 346.793 34.088 345.66 34.088H327.3ZM336.888 25.792L336.956 34.088H315.944C315.627 33.68 315.355 33.1133 315.128 32.388C314.947 31.6627 314.856 30.892 314.856 30.076C314.856 28.58 315.173 27.492 315.808 26.812C316.488 26.132 317.372 25.792 318.46 25.792H336.888ZM326.756 32.252H337.16V66.932C336.707 67.068 336.027 67.1813 335.12 67.272C334.213 67.408 333.284 67.476 332.332 67.476C330.292 67.476 328.841 67.1133 327.98 66.388C327.164 65.6627 326.756 64.3933 326.756 62.58V32.252Z" fill="#FEFEFE"/>
</svg>
