<svg xmlns="http://www.w3.org/2000/svg" width="64" height="64" fill="none"><path fill="#48bb78" d="M53.3 40a2.7 2.7 0 1 0 0-5.3 2.7 2.7 0 0 0 0 5.3Z"/><path fill="#48bb78" fill-rule="evenodd" d="M44.7 2.6A8 8 0 0 1 55 8.8l1 5a8 8 0 0 1 5.4 7.5v7.4a8 8 0 0 1 2.7 6V40a8 8 0 0 1-2.7 6v7.3a8 8 0 0 1-8 8H10.7a8 8 0 0 1-8-8v-32a8 8 0 0 1 6.6-7.9L44.7 2.6Zm11.3 40c1.5 0 2.7-1.1 2.7-2.6v-5.3c0-1.5-1.2-2.7-2.7-2.7h-8a2.7 2.7 0 0 0-2.7 2.7V40c0 1.5 1.2 2.7 2.7 2.7h8Zm0 5.4v5.3c0 1.5-1.2 2.7-2.7 2.7H10.7A2.7 2.7 0 0 1 8 53.3v-32c0-1.4 1.2-2.6 2.7-2.6h42.6c1.5 0 2.7 1.2 2.7 2.6v5.4h-8a8 8 0 0 0-8 8V40a8 8 0 0 0 8 8h8ZM49.9 9.6l.6 3.7H26.7l19.8-5.8c1.5-.4 3 .5 3.4 2.1Z" clip-rule="evenodd"/></svg>